<?xml version="1.0" encoding="utf-8"?>
<svg version="1.1" xmlns="http://www.w3.org/2000/svg" xmlns:xlink="http://www.w3.org/1999/xlink" x="0px" y="0px"
	 viewBox="0 0 256 256" style="enable-background:new 0 0 256 256;" xml:space="preserve">
<style type="text/css">
	.st0{fill:#688499;}
	.st1{opacity:0.3;fill:#FFFFFF;}
	.st2{fill:#FFFFFF;}
</style>
<rect class="st0" width="256" height="256"/>
<title>EXT:tinyimg</title>
<polygon class="st1" points="52,199.2 92.5,147.4 133,199.2 "/>
<polygon class="st1" points="111.8,172.2 147.3,126.8 203.9,199.2 133,199.2 "/>
<polygon class="st1" points="142.9,191.4 119.9,161.9 111.8,172.2 133,199.2 148.9,199.2 "/>
<path class="st2" d="M211,26.7H44.9c-10.1,0-18.3,8.2-18.3,18.3v166c0,10.1,8.2,18.3,18.3,18.3h166c10.1,0,18.3-8.2,18.3-18.3V44.9
	C229.4,34.9,221,26.7,211,26.7z M39.3,210.8v-160L74.5,86L63.2,97.3l46.5,12.5L97.2,63.2L85.9,74.6L50.5,39.3H211
	c3,0,5.6,2.6,5.6,5.6v160.5L181.3,170l11.3-11.3l-46.5-12.5l12.5,46.5l11.4-11.4l35,35h-160C41.9,216.4,39.3,213.9,39.3,210.8z"/>
</svg>
