<?xml version="1.0" ?><svg enable-background="new 0 0 256 256" id="Layer_1" version="1.1" viewBox="0 0 256 256" xml:space="preserve" xmlns="http://www.w3.org/2000/svg" xmlns:xlink="http://www.w3.org/1999/xlink"><g><path d="M54.7,116.91c2.823,0.029,5.711,0.027,8.531-0.032c-2.65,1.092-5.392,2.294-8.145,3.555   c-2.953,1.353-5.226,5.288-3.873,8.241c1.352,2.953,6.15,3.651,9.102,2.298c2.449-1.122,4.941-2.293,7.359-3.488   c-1.86,2.023-3.753,4.17-5.632,6.369c-2.108,2.469-2.514,6.996-0.044,9.105c2.469,2.109,7.115,0.723,9.223-1.746   c2.167-2.537,4.361-5.171,6.404-7.761c-0.958,3.18-1.88,6.582-2.746,10.047c-0.787,3.15,0.867,7.384,4.018,8.171   c3.15,0.788,6.692-2.523,7.479-5.673c0.799-3.192,1.578-6.48,2.247-9.667c0.549,3.235,1.225,6.646,1.975,10.088   c0.692,3.172,4.054,6.232,7.227,5.54c3.172-0.691,4.877-5.23,4.185-8.403c-0.738-3.384-1.541-6.855-2.406-10.157   c2.028,2.767,4.275,5.651,6.612,8.528c2.048,2.521,6.427,3.738,8.948,1.69c2.52-2.048,1.996-6.868-0.051-9.389   c-1.852-2.28-3.775-4.593-5.695-6.804c2.627,1.384,5.414,2.769,8.257,4.122c2.933,1.396,7.41,0.61,8.806-2.322   c1.395-2.932-1.15-7.059-4.084-8.454c-2.423-1.153-4.912-2.307-7.371-3.391c2.736,0.128,5.588,0.201,8.47,0.23   c3.247,0.032,6.978-2.562,7.012-5.809s-4.012-5.921-7.26-5.954c-2.823-0.029-5.711-0.027-8.53,0.031   c2.65-1.092,5.393-2.294,8.145-3.555c2.953-1.353,5.224-5.289,3.873-8.242c-1.352-2.953-6.15-3.65-9.104-2.297   c-2.449,1.122-4.942,2.294-7.36,3.488c1.86-2.023,3.753-4.171,5.632-6.37c2.109-2.469,2.514-6.996,0.045-9.105   c-2.469-2.109-7.115-0.723-9.224,1.746c-2.167,2.537-4.361,5.171-6.403,7.761c0.958-3.18,1.88-6.582,2.746-10.046   c0.788-3.15-0.867-7.384-4.017-8.172c-3.151-0.788-6.692,2.523-7.479,5.674c-0.799,3.192-1.578,6.48-2.247,9.667   c-0.549-3.235-1.224-6.646-1.975-10.088c-0.692-3.172-4.054-6.233-7.227-5.541c-3.172,0.691-4.877,5.23-4.186,8.403   c0.738,3.384,1.542,6.855,2.407,10.157c-2.028-2.767-4.275-5.651-6.612-8.527c-2.049-2.521-6.427-3.738-8.948-1.69   c-2.521,2.048-1.997,6.868,0.05,9.389c1.852,2.28,3.775,4.593,5.695,6.804c-2.627-1.384-5.414-2.769-8.257-4.122   c-2.932-1.396-7.409-0.61-8.805,2.322c-1.394,2.932,1.15,7.059,4.084,8.454c2.423,1.153,4.913,2.307,7.372,3.391   c-2.737-0.128-5.588-0.201-8.47-0.23c-3.246-0.033-6.979,2.562-7.012,5.809C47.408,114.203,51.453,116.876,54.7,116.91z    M87.135,94.384c9.385-1.016,17.816,5.768,18.832,15.153c1.017,9.385-5.768,17.816-15.152,18.833   c-9.385,1.016-17.816-5.768-18.833-15.153C70.966,103.832,77.75,95.4,87.135,94.384z"/><path d="M166,58H12v110h154V58z M158,160H20V66h138V160z"/><path d="M231.045,208.153c-5.947,0-10.913,4.847-12.151,9.847H215v-6.046c0-2.29-2-4.197-4-4.753V184h6.201   c2.728,0,4.799-2.895,4.799-5.618v-12.95c0-2.725-2.071-4.432-4.799-4.432h-2.305c-0.124,0-0.298-1.209-0.532-1.672   c-1.752-3.446-5.961-4.697-9.408-2.949L196.097,161h-16.692c-0.001,0-0.003,0-0.004,0h-0.003c-0.021,0-0.04-0.245-0.061-0.244   c-0.301,0.004-0.602-0.094-0.898-0.035c-0.189,0.037-0.366,0.041-0.547,0.099c-0.123,0.04-0.248,0.034-0.368,0.083   c-0.243,0.1-0.468,0.212-0.69,0.347c-0.05,0.031-0.105,0.043-0.155,0.076c-0.292,0.194-0.562,0.772-0.806,1.022L161.577,177H74.074   c-0.306-2-2.039-4-4.149-4H37.62c-2.328,0-4.62,1.584-4.62,3.912v4.303v11.099v2.416c0,2.724,2.612,5.27,5.34,5.27h132.208   c0.214,0,0.417-0.205,0.623-0.231c0.1-0.013,0.202-0.095,0.301-0.115c1.052-0.2,1.978-0.438,2.679-1.193L188.914,184H190v23.201   c-2,0.557-3,2.464-3,4.752V218h-3.883c-1.237-5-6.203-9.847-12.15-9.847c-6.877,0-12.455,5.526-12.455,12.404   c0,6.878,5.578,12.74,12.455,12.74c5.147,0,9.565-3.296,11.462-7.296H187v2.949c0,2.725,2.497,5.051,5.22,5.051h18.104   c2.722,0,4.676-2.326,4.676-5.051V226h4.582c1.897,4,6.315,7.271,11.463,7.271c6.876,0,12.455-5.682,12.455-12.56   C243.5,213.834,237.921,208.153,231.045,208.153z"/><path d="M214.364,78.602c-1.752-3.445-5.961-4.821-9.408-3.073l-13.123,6.658c-3.445,1.749-4.819,5.959-3.072,9.405   c1.746,3.445,5.957,4.821,9.404,3.073l13.123-6.659C214.733,86.258,216.108,82.048,214.364,78.602z"/><path d="M214.364,98.721c-1.752-3.444-5.961-4.821-9.408-3.073l-13.123,6.659c-3.445,1.748-4.819,5.959-3.072,9.405   c1.746,3.444,5.957,4.82,9.404,3.073l13.123-6.66C214.733,106.377,216.108,102.166,214.364,98.721z"/><path d="M214.364,118.84c-1.752-3.444-5.961-4.822-9.408-3.073l-13.123,6.659c-3.445,1.748-4.819,5.959-3.072,9.405   c1.746,3.444,5.957,4.82,9.404,3.073l13.123-6.659C214.733,126.495,216.108,122.284,214.364,118.84z"/><path d="M204.956,135.885l-13.123,6.66c-3.445,1.748-4.819,5.959-3.072,9.404c1.746,3.445,5.957,4.821,9.404,3.073l13.123-6.659   c3.445-1.748,4.82-5.959,3.076-9.405C212.612,135.514,208.403,134.138,204.956,135.885z"/><path d="M37.62,50h32.305c2.11,0,3.843-1,4.149-3h87.503l14.294,14.115c0.742,0.667,2.127,0.885,3.528,0.885h12.712l-0.277,0.105   c-3.445,1.748-4.819,5.942-3.072,9.387c1.746,3.445,5.957,4.812,9.404,3.064l13.123-6.628c2.34-1.187,3.721-2.928,3.823-5.928h2.09   c2.728,0,4.799-2.281,4.799-5.005V44.044c0-2.724-2.071-4.044-4.799-4.044H211v-5.078c0-2.724-1.634-4.922-4.359-4.922h-10.737   c-2.727,0-5.903,2.198-5.903,4.922V40h-1.087L174.15,24.792c-0.7-0.753-1.623-1.512-2.673-1.713   c-0.154-0.03-0.311-0.025-0.466-0.04c-0.155-0.015-0.304-0.04-0.463-0.04h-0.024c0,0-0.001,0-0.001,0H38.34   C35.612,23,33,24.972,33,27.697v2.416v11.099v4.302C33,47.842,35.292,50,37.62,50z"/></g><g id="Arquivo"/><g id="Arrow_2"/><g id="Edit"/><g id="Scissors"/><g id="Delete"/></svg>